# xmcd CD database file
#
# Track frame offsets:
#	150
#	14165
#	26547
#	41087
#	55335
#	70350
#	82404
#	96647
#	103912
#	116137
#	127672
#	139762
#
# Disc length: 2013 seconds
#
# Revision: 1
# Processed by: cddbd v1.5.2PL0 Copyright (c) Steve Scherf et al.
# Submitted via: CDex 1.70beta2
#
DISCID=b707db0c
DTITLE=Phil Rosenthal - A Matter Of Time
DYEAR=1997
DGENRE=Bluegrass
TTITLE0=What the Old Folks Know
TTITLE1=Our New England Home
TTITLE2=Wild Flowers
TTITLE3=Around The Horn
TTITLE4=A Matter of Time
TTITLE5=When I Get Home To You
TTITLE6=Hurricane
TTITLE7=Naomi
TTITLE8=The Man Who Just Plays On The Street
TTITLE9=My Gal
TTITLE10=Lonely Tonight
TTITLE11=I Want To Be That Way
EXTD=YEAR: 1997
EXTT0=
EXTT1=
EXTT2=
EXTT3=
EXTT4=
EXTT5=
EXTT6=
EXTT7=
EXTT8=
EXTT9=
EXTT10=
EXTT11=
PLAYORDER=
